<svg width="50" height="50" viewBox="0 0 50 50" fill="none" xmlns="http://www.w3.org/2000/svg">
<g clip-path="url(#clip0)">
<path d="M29.8428 26.4076C28.8173 26.4191 30.0367 26.8344 31.3756 27.0008C31.7241 26.7811 32.0593 26.5479 32.38 26.3021C31.5463 26.467 30.6977 26.4708 29.8428 26.4077V26.4076ZM35.3471 25.2995C35.9578 24.6189 36.4029 23.8737 36.5599 23.103C36.4228 23.6524 36.0535 24.1267 35.706 24.6271C33.7891 25.6019 35.5258 24.0483 35.7049 23.4579C33.6436 25.5532 35.4217 24.7144 35.3471 25.2997V25.2995ZM37.3786 21.0298C37.5027 19.5385 37.0154 20.0099 36.8513 20.5792C37.0427 20.6593 37.1939 21.6304 37.3786 21.03V21.0298ZM25.9541 0.644531C26.5013 0.723869 27.1365 0.784595 27.0474 0.890116C27.6462 0.784122 27.782 0.686487 25.9541 0.644531V0.644531ZM27.0474 0.890116L26.6607 0.954785L27.0207 0.928917L27.0474 0.890116Z" fill="#A80030"/>
<path d="M44.1142 21.5957C44.1751 22.9352 43.629 23.585 43.1365 24.7353L42.2502 25.093C41.5248 26.2304 42.3205 25.8153 41.801 26.72C40.6688 27.5329 38.3649 29.2642 37.6277 29.4222C37.0894 29.4124 37.9923 28.9091 38.1105 28.712C36.5947 29.5527 36.8943 29.9738 34.576 30.4845L34.5083 30.3629C28.7909 32.535 20.8492 28.2304 20.9537 22.3566C20.8925 22.7295 20.78 22.6364 20.6535 22.7872C20.3584 19.7651 22.3815 16.7296 25.7937 15.4904C29.1311 14.156 33.0438 14.7036 35.4344 16.503C34.1212 15.1137 31.5074 13.6411 28.4096 13.779C25.3754 13.8176 22.5368 15.3752 21.5894 17.0656C20.0347 17.8561 19.8545 20.1126 19.177 20.5255C18.2657 25.935 20.8914 28.2722 25.333 31.0214C26.0322 31.4022 25.5301 31.4599 25.6248 31.7497C24.1489 31.1915 22.7975 30.349 21.6864 29.3175C22.2759 30.0145 22.9122 30.6919 23.7346 31.2243C22.3433 30.8435 20.4845 28.5012 19.9418 28.406C22.3403 31.8741 29.6733 34.4883 33.5128 33.1915C31.7363 33.2443 29.4791 33.2208 27.4829 32.6249C26.6445 32.2765 25.5045 31.5547 25.708 31.4197C30.948 33.0006 36.3611 32.617 40.8953 29.6815C42.0488 28.9561 43.3089 27.7219 43.673 27.7049C43.1245 28.3708 43.7667 28.0251 43.3454 28.6134C44.4948 27.1164 42.846 28.0039 44.5335 26.0282L45.1567 26.7213C44.9251 25.4787 47.0674 23.9699 46.85 22.0046C47.3414 21.4036 47.3984 22.6512 46.8768 24.0339C47.6006 22.5 47.0674 22.2534 47.2535 20.9878C47.4545 21.4132 47.7181 21.8654 47.8533 22.3143C47.3818 20.832 48.3372 19.8181 48.5736 18.9566C48.3406 18.8733 47.8459 19.6121 47.7328 17.8612C47.7494 17.1006 47.9949 17.4624 48.0896 17.2754C47.9046 17.1896 47.4197 16.6066 47.1246 15.4883C47.3385 15.2257 47.6963 16.1697 47.9875 16.2083C47.8002 15.3192 47.4777 14.6413 47.4646 13.9591C46.6143 12.524 47.1639 14.1505 46.4738 13.343C45.5688 11.0629 47.225 12.8139 47.3369 11.7777C48.7087 13.3831 49.4911 15.871 49.8501 16.9016C49.5763 15.6451 49.1333 14.4279 48.5929 13.2503C49.0095 13.3918 47.9218 10.6651 49.1345 12.4711C47.839 8.62159 43.5902 5.02474 39.6815 3.33704C40.1598 3.69036 40.7635 4.13436 40.5467 4.20392C38.6028 3.26922 38.9448 3.19635 38.6663 2.8014C37.0826 2.28105 36.9789 2.84335 35.9297 2.80234C32.945 1.5238 32.3699 1.65976 29.6231 0.858811L29.7481 1.33042C27.7706 0.798401 27.4441 1.53216 25.3068 1.332C25.1767 1.24998 25.9918 1.03531 26.6622 0.956603C24.7504 1.16007 24.84 0.652187 22.9692 1.01275C23.4303 0.751398 23.9178 0.578527 24.4098 0.356445C22.8507 0.432944 20.6877 1.08925 21.3552 0.492407C18.8123 1.40865 14.2959 2.69493 11.7614 4.61417L11.6813 4.18405C10.5202 5.31023 6.61707 7.54682 6.30614 9.00503L5.9956 9.06354C5.39133 9.89004 5.00033 10.8265 4.52105 11.6768C3.73065 12.7645 3.36249 12.0954 3.47499 12.2659C1.92036 14.8113 1.14812 16.9505 0.480957 18.7046C0.956526 19.2784 0.49248 22.1588 0.672356 24.4643C-0.108475 35.8503 10.5669 46.9052 22.236 49.4577C23.9463 49.9517 26.4898 49.9328 28.6534 49.9836C26.1007 49.394 25.7707 49.6711 23.2844 48.971C21.4906 48.2888 21.0974 47.5099 19.8271 46.6195L20.3299 47.3372C17.8381 46.6251 18.8807 46.4558 16.8538 45.9374L17.3909 45.371C16.5833 45.3216 15.2517 44.2716 14.8877 43.6905L14.0043 43.7186C12.9428 42.6609 12.3772 41.8984 12.4184 41.3082L12.1329 41.7188C11.8093 41.2703 8.22775 37.7519 10.0859 38.571C9.74058 38.3161 9.28181 38.1561 8.78417 37.426L9.16248 37.0766C8.26818 36.1476 7.51664 34.9566 7.57367 34.5598C8.0508 35.0801 8.38185 35.1773 8.70937 35.2664C6.45106 30.7411 6.3245 35.017 4.61401 30.6601L4.97591 30.6366C4.69858 30.2992 4.53023 29.9328 4.30699 29.5735L4.4646 28.3058C2.83869 26.7877 4.00954 21.8506 4.2443 19.1429C4.40679 18.0419 5.60128 16.8697 6.50984 15.0317L5.95635 14.9547C7.01432 13.4642 11.9977 8.96859 14.3057 9.19998C15.4236 8.06591 14.0836 9.19588 13.865 8.91007C16.3206 6.85771 17.0929 7.46007 18.7502 7.09099C20.5375 6.23421 17.2161 7.42506 18.0635 6.76417C21.1533 6.12679 20.2533 5.31512 24.284 4.99162C24.7094 5.18704 23.2975 5.29351 22.943 5.54698C25.5174 4.52979 31.0896 4.76118 34.709 6.11165C38.9089 7.69667 43.6273 12.382 43.8134 16.7905L44.0251 16.8366C43.9177 18.5889 44.3571 20.6154 43.5958 22.477L44.1142 21.5957" fill="#A80030"/>
<path d="M18.6492 27.5448L18.5055 28.1256C19.1793 28.8648 19.7142 29.6658 20.5747 30.2439C19.9556 29.2675 19.4957 28.8644 18.6492 27.5448ZM20.2427 27.4942C19.8859 27.1756 19.6748 26.7923 19.4387 26.4101C19.6646 27.0815 20.1273 27.6587 20.5583 28.2454L20.2427 27.4942ZM48.4372 22.5451L48.2866 22.8502C48.0105 24.4347 47.414 26.0027 46.4996 27.4563C47.5099 25.9224 48.1634 24.245 48.4372 22.5451ZM26.1568 0.247634C26.8501 0.042429 27.8614 0.135016 28.5971 0C27.6382 0.0649842 26.6841 0.103628 25.7417 0.201893L26.1568 0.247634ZM1.8137 10.7014C1.97365 11.8961 0.700847 12.3598 2.09572 11.5721C2.84335 10.212 1.80354 11.1965 1.8137 10.7014ZM0.174694 16.2303C0.495972 15.4339 0.554173 14.9555 0.67702 14.4946C-0.211034 15.4114 0.268441 15.6066 0.174694 16.2303Z" fill="#A80030"/>
</g>
<defs>
<clipPath id="clip0">
<rect width="50" height="50" fill="white"/>
</clipPath>
</defs>
</svg>
