<svg width="50" height="50" viewBox="0 0 50 50" fill="none" xmlns="http://www.w3.org/2000/svg">
<path d="M25 49.5763C38.1225 49.5763 48.7603 38.8577 48.7603 25.6356C48.7603 12.4135 38.1225 1.69492 25 1.69492C11.8775 1.69492 1.23967 12.4135 1.23967 25.6356C1.23967 38.8577 11.8775 49.5763 25 49.5763Z" fill="white"/>
<path fill-rule="evenodd" clip-rule="evenodd" d="M24.9537 0C11.174 0 0 11.4555 0 25.5881C0 36.8941 7.15 46.4852 17.0649 49.8691C18.3116 50.1064 18.7694 49.314 18.7694 48.6381C18.7694 48.028 18.7463 46.0123 18.7355 43.8742C11.7934 45.422 10.3285 40.8551 10.3285 40.8551C9.19339 37.8975 7.55785 37.111 7.55785 37.111C5.29339 35.5229 7.72851 35.5559 7.72851 35.5559C10.2339 35.736 11.5537 38.1928 11.5537 38.1928C13.7793 42.1038 17.3913 40.9733 18.8153 40.3199C19.0393 38.6661 19.686 37.5369 20.3996 36.8979C14.857 36.2517 9.03017 34.0572 9.03017 24.2525C9.03017 21.4589 10.0054 19.1763 11.6017 17.3839C11.3421 16.7398 10.488 14.1373 11.843 10.6127C11.843 10.6127 13.938 9.925 18.7066 13.2356C20.6975 12.6682 22.8326 12.3831 24.9537 12.3733C27.0736 12.3831 29.2099 12.6674 31.2045 13.2347C35.9674 9.92415 38.0599 10.6119 38.0599 10.6119C39.4182 14.136 38.564 16.739 38.305 17.3831C39.905 19.1754 40.8731 21.4581 40.8731 24.2517C40.8731 34.0797 35.0355 36.2432 29.4789 36.8771C30.3744 37.6712 31.1719 39.2288 31.1719 41.6157C31.1719 45.0394 31.143 47.7949 31.143 48.6377C31.143 49.3186 31.5926 50.1165 32.857 49.8653C42.7661 46.478 49.9079 36.8898 49.9079 25.5881C49.9074 11.4564 38.7347 0.000423698 24.9537 0.000423698V0Z" fill="#181616"/>
<path d="M9.45124 36.7386C9.39628 36.8657 9.20124 36.9038 9.02356 36.817C8.84174 36.7339 8.7405 36.5606 8.79918 36.4331C8.85289 36.3017 9.04835 36.2657 9.22893 36.3534C9.41075 36.4369 9.51405 36.6119 9.45083 36.739L9.45124 36.7386ZM10.462 37.8949C10.3434 38.0081 10.1107 37.9555 9.95289 37.7763C9.78926 37.5983 9.75868 37.3597 9.87975 37.2449C10.0029 37.1322 10.2285 37.1856 10.3922 37.3636C10.555 37.5441 10.5872 37.7805 10.4624 37.8953L10.462 37.8949ZM11.4463 39.3682C11.2934 39.4775 11.043 39.3754 10.8884 39.1479C10.7355 38.9199 10.7355 38.6466 10.8926 38.5377C11.0467 38.4284 11.2934 38.5271 11.4504 38.7525C11.6025 38.9835 11.6025 39.2568 11.4463 39.3678V39.3682ZM12.7938 40.7924C12.6574 40.947 12.3657 40.9055 12.1525 40.6949C11.9347 40.4886 11.874 40.1949 12.0107 40.0407C12.1496 39.8856 12.4426 39.9288 12.657 40.1381C12.8748 40.3441 12.9405 40.6381 12.7946 40.792L12.7938 40.7924ZM14.6533 41.6191C14.5926 41.8195 14.3124 41.9106 14.0293 41.825C13.7471 41.7373 13.5624 41.503 13.6202 41.3004C13.6781 41.0983 13.9603 41.0038 14.245 41.0949C14.5273 41.1822 14.712 41.4153 14.6533 41.6191ZM16.6959 41.772C16.7029 41.9831 16.4632 42.1576 16.1669 42.1619C15.8682 42.1691 15.6264 41.9979 15.6236 41.7903C15.6236 41.5771 15.8583 41.4047 16.1566 41.3987C16.4529 41.3932 16.6963 41.5627 16.6963 41.7716L16.6959 41.772ZM18.5959 41.4407C18.6314 41.6462 18.4252 41.8576 18.1306 41.914C17.8413 41.9691 17.5727 41.8411 17.5355 41.6373C17.5 41.4263 17.7099 41.2148 17.9992 41.1602C18.2942 41.1081 18.5587 41.2322 18.5959 41.4411V41.4407Z" fill="#181616"/>
</svg>
