<svg width="50" height="50" viewBox="0 0 50 50" fill="none" xmlns="http://www.w3.org/2000/svg">
<path d="M3.40918 44.5028H11.3637V25.1846L0 16.6619V41.0938C0 42.9773 1.52559 44.503 3.40918 44.503V44.5028Z" fill="#4285F4"/>
<path d="M38.6364 44.5028H46.5909C48.4744 44.5028 50 42.9772 50 41.0937V16.6619L38.6364 25.1846V44.5028Z" fill="#34A853"/>
<path d="M38.6364 10.4121V25.1848L50 16.6621V12.1167C50 7.90364 45.1904 5.49741 41.8182 8.02581L38.6364 10.4121Z" fill="#FBBC04"/>
<path fill-rule="evenodd" clip-rule="evenodd" d="M11.3636 25.1846V10.4119L25 20.6392L38.6363 10.4119V25.1846L25 35.4119L11.3636 25.1846Z" fill="#EA4335"/>
<path d="M0 12.1165V16.6618L11.3637 25.1845V10.4119L8.18184 8.02557C4.80957 5.49717 0 7.9034 0 12.1163V12.1165Z" fill="#C5221F"/>
</svg>
