<svg width="50" height="50" viewBox="0 0 50 50" fill="none" xmlns="http://www.w3.org/2000/svg">
<path d="M18.5999 38.3281C18.5999 38.3281 16.7378 39.4117 19.9268 39.7773C23.7909 40.2187 25.7655 40.1555 30.0226 39.3508C30.0226 39.3508 31.144 40.052 32.7073 40.6598C23.1608 44.7496 11.1026 40.4227 18.5999 38.3281ZM17.4327 32.9902C17.4327 32.9902 15.3436 34.5367 18.5354 34.8672C22.6632 35.2934 25.9222 35.3281 31.5643 34.2422C31.5643 34.2422 32.3429 35.0332 33.569 35.4652C22.0292 38.8402 9.17607 35.7309 17.4327 32.9902V32.9902Z" fill="#0074BD"/>
<path d="M27.2671 23.9344C29.6206 26.6434 26.6499 29.0789 26.6499 29.0789C26.6499 29.0789 32.6222 25.9965 29.88 22.1348C27.3179 18.5352 25.3538 16.7473 35.9874 10.5801C35.9874 10.5805 19.2956 14.748 27.2671 23.9344V23.9344Z" fill="#EA2D2E"/>
<path d="M39.8911 42.2772C39.8911 42.2772 41.2696 43.4139 38.3723 44.2925C32.8637 45.9612 15.4403 46.4643 10.6012 44.3593C8.86257 43.6022 12.1243 42.5526 13.1505 42.3311C14.2204 42.0995 14.8313 42.1417 14.8313 42.1417C12.8966 40.7796 2.32624 44.8175 9.46296 45.9757C28.9243 49.1303 44.9384 44.555 39.8911 42.2772V42.2772ZM19.4962 27.4589C19.4962 27.4589 10.6344 29.5639 16.3583 30.3292C18.7755 30.6526 23.5919 30.5784 28.0813 30.2018C31.7493 29.8936 35.4302 29.2354 35.4302 29.2354C35.4302 29.2354 34.138 29.7897 33.202 30.428C24.2012 32.7956 6.81765 31.6928 11.8227 29.2725C16.054 27.226 19.4962 27.4589 19.4962 27.4589V27.4589ZM35.3934 36.3444C44.5423 31.5917 40.3118 27.0241 37.3591 27.6393C36.6372 27.7897 36.3134 27.9206 36.3134 27.9206C36.3134 27.9206 36.5821 27.4991 37.0946 27.3178C42.9356 25.2651 47.427 33.3737 35.2106 36.5854C35.2106 36.5846 35.3509 36.4577 35.3934 36.3444V36.3444Z" fill="#0074BD"/>
<path d="M29.8791 0.620117C29.8791 0.620117 34.9447 5.68887 25.0732 13.4807C17.1568 19.733 23.2681 23.2971 25.0705 27.3709C20.449 23.2018 17.0591 19.5311 19.333 16.115C22.672 11.1018 31.9224 8.67012 29.8791 0.620117V0.620117Z" fill="#EA2D2E"/>
<path d="M20.3963 49.227C29.176 49.7883 42.6619 48.9145 42.9811 44.7598C42.9811 44.7598 42.3674 46.3348 35.7244 47.5844C28.2299 48.9953 18.9846 48.8309 13.5029 47.9258C13.5029 47.9262 14.626 48.8559 20.3963 49.227V49.227Z" fill="#0074BD"/>
</svg>
