<svg width="50" height="50" viewBox="0 0 50 50" fill="none" xmlns="http://www.w3.org/2000/svg">
<path d="M0 0H50V50H0V0Z" fill="#F0DB4F"/>
<path d="M45.9078 38.0753C45.5418 35.794 44.0541 33.8786 39.6483 32.0915C38.1178 31.3881 36.4116 30.8843 35.903 29.7246C35.7224 29.0497 35.6986 28.6695 35.8127 28.2607C36.1406 26.9347 37.7233 26.5212 38.9781 26.9014C39.7861 27.1723 40.5513 27.795 41.0123 28.7883C43.1701 27.391 43.1654 27.4004 44.672 26.4404C44.1207 25.5849 43.826 25.1904 43.4648 24.8244C42.1673 23.3748 40.3992 22.6286 37.5713 22.6857C37.0817 22.7474 36.5875 22.8139 36.0979 22.8758C34.6863 23.2322 33.3412 23.9737 32.5522 24.967C30.1853 27.6524 30.8602 32.3529 33.7405 34.2874C36.5779 36.4166 40.7462 36.9014 41.2785 38.8929C41.7965 41.3311 39.4867 42.12 37.191 41.8397C35.499 41.4879 34.558 40.6277 33.5408 39.064C31.6683 40.1476 31.6683 40.1476 29.7434 41.2551C30.1996 42.2531 30.6796 42.7047 31.4449 43.5697C35.0666 47.2436 44.1302 47.063 45.7557 41.5022C45.8222 41.312 46.2595 40.0383 45.9078 38.0753V38.0753ZM27.1815 22.9803H22.5047C22.5047 27.0202 22.4858 31.0316 22.4858 35.0715C22.4858 37.6428 22.6188 40.0003 22.2006 40.7227C21.5162 42.1437 19.7434 41.9679 18.9354 41.6922C18.1131 41.2882 17.6949 40.7131 17.2101 39.9004C17.077 39.6676 16.9772 39.4869 16.9439 39.4727C15.6749 40.2474 14.4106 41.0268 13.1416 41.8016C13.7738 43.0991 14.7053 44.2255 15.8983 44.9574C17.6806 46.0268 20.076 46.3548 22.5808 45.7797C24.211 45.3044 25.6178 44.3206 26.3545 42.8234C27.4192 40.8605 27.191 38.4841 27.1815 35.8558C27.2053 31.5687 27.1815 27.2816 27.1815 22.9803Z" fill="#323330"/>
</svg>
