<svg width="50" height="50" viewBox="0 0 50 50" fill="none" xmlns="http://www.w3.org/2000/svg">
<path d="M0 3.68162C0 1.70466 1.65508 0.0999756 3.69531 0.0999756H46.3047C48.3457 0.0999756 50 1.70466 50 3.68162V46.5189C50 48.4965 48.3457 50.1 46.3047 50.1H3.69531C1.65527 50.1 0 48.4967 0 46.5195V3.68103V3.68162Z" fill="#0A66C2"/>
<path d="M15.1945 41.9434V19.4332H7.7125V41.9434H15.1953H15.1945ZM11.4551 16.3603C14.0637 16.3603 15.6877 14.6318 15.6877 12.4717C15.6389 10.2623 14.0637 8.58203 11.5047 8.58203C8.94395 8.58203 7.27148 10.2623 7.27148 12.4715C7.27148 14.6316 8.89492 16.3602 11.4061 16.3602H11.4545L11.4551 16.3603ZM19.3359 41.9434H26.8174V29.374C26.8174 28.7021 26.8662 28.0285 27.0639 27.5486C27.6045 26.2039 28.8355 24.8119 30.9029 24.8119C33.6096 24.8119 34.693 26.876 34.693 29.9023V41.9434H42.1742V29.0367C42.1742 22.1229 38.4836 18.9055 33.5611 18.9055C29.5254 18.9055 27.7529 21.1611 26.7682 22.6975H26.818V19.434H19.3363C19.434 21.5457 19.3357 41.9441 19.3357 41.9441L19.3359 41.9434Z" fill="white"/>
</svg>
