<svg width="50" height="50" viewBox="0 0 50 50" fill="none" xmlns="http://www.w3.org/2000/svg">
<path d="M46.0251 38.5341C43.3068 38.4653 41.1999 38.7414 39.4329 39.5007C38.9232 39.7077 38.1075 39.7079 38.0396 40.3638C38.3115 40.64 38.3454 41.0888 38.5833 41.4684C38.9915 42.1586 39.7046 43.0907 40.3503 43.5743C41.0638 44.1264 41.7777 44.6786 42.5249 45.1619C43.8503 45.9905 45.3456 46.4736 46.6368 47.3021C47.3847 47.7851 48.1318 48.4069 48.8794 48.9245C49.2532 49.2003 49.4909 49.6495 49.9669 49.8219V49.7185C49.7288 49.4076 49.6609 48.959 49.4232 48.6138C49.0837 48.2686 48.7435 47.9579 48.4036 47.6126C47.4183 46.2666 46.195 45.0929 44.8699 44.1264C43.7825 43.3669 41.4036 42.3314 40.962 41.0541C40.962 41.0541 40.9279 41.0198 40.8941 40.9852C41.6415 40.9162 42.5249 40.64 43.2388 40.4329C44.3941 40.122 45.4474 40.1912 46.6368 39.8805C47.1804 39.7424 47.7241 39.5698 48.2677 39.3972V39.0867C47.6564 38.4653 47.2146 37.6369 46.5689 37.05C44.8359 35.5308 42.9327 34.0467 40.962 32.8041C39.9085 32.1136 38.5491 31.6648 37.4279 31.0781C37.0204 30.8708 36.3406 30.7674 36.1029 30.4222C35.4909 29.6629 35.1511 28.6619 34.7095 27.7643C33.7243 25.8656 32.7726 23.7601 31.923 21.7581C31.3116 20.4118 30.9378 19.0654 30.1902 17.8229C26.6902 11.9546 22.8843 8.39916 17.0398 4.91254C15.7823 4.18776 14.2872 3.87705 12.6902 3.4975C11.8409 3.46278 10.9911 3.39393 10.1417 3.35921C9.59798 3.11755 9.05423 2.46181 8.57844 2.1511C6.64192 0.908279 1.64641 -1.78391 0.219264 1.77155C-0.698314 4.01514 1.57864 6.22422 2.35989 7.36367C2.93801 8.1575 3.68528 9.0549 4.09309 9.95249C4.33098 10.539 4.39876 11.1608 4.63665 11.782C5.18059 13.3004 5.68997 14.9922 6.40383 16.4077C6.77766 17.1325 7.18528 17.8918 7.66106 18.5477C7.93294 18.9273 8.40852 19.1001 8.51067 19.7213C8.03509 20.4118 8.00091 21.4474 7.72883 22.3103C6.50559 26.211 6.98157 31.0436 8.71438 33.9086C9.25794 34.7713 10.5493 36.6705 12.2824 35.9453C13.8116 35.3241 13.4718 33.3565 13.9132 31.6305C14.0156 31.2158 13.9476 30.9401 14.1513 30.6639V30.7331C14.6271 31.6994 15.1027 32.6317 15.5445 33.5981C16.598 35.2893 18.4327 37.05 19.9618 38.2238C20.7777 38.8448 21.4232 39.915 22.4427 40.2948V40.191H22.3745C22.1706 39.8803 21.8648 39.7424 21.5931 39.5006C20.9816 38.8795 20.3017 38.12 19.8261 37.4296C18.3991 35.4963 17.1415 33.3563 16.0202 31.147C15.4767 30.0772 15.0007 28.9034 14.5591 27.8334C14.355 27.4187 14.355 26.7977 14.0154 26.5908C13.5056 27.3501 12.7581 28.006 12.3843 28.9379C11.739 30.4222 11.6708 32.2517 11.4329 34.1501C11.297 34.185 11.3648 34.1501 11.2968 34.2195C10.2097 33.943 9.83587 32.8041 9.42786 31.8375C8.40833 29.3867 8.23841 25.4515 9.12219 22.621C9.36009 21.896 10.3796 19.6179 9.9718 18.9275C9.7679 18.2715 9.08801 17.8918 8.71438 17.3741C8.27278 16.7182 7.7968 15.89 7.49114 15.1649C6.67551 13.2318 6.2677 11.0916 5.3843 9.15847C4.97649 8.26087 4.26321 7.32915 3.68528 6.5006C3.03977 5.56868 2.3261 4.91254 1.81633 3.80801C1.64661 3.42845 1.40852 2.80704 1.6804 2.39277C1.74837 2.11658 1.88411 2.01321 2.15618 1.94417C2.59798 1.56421 3.8554 2.04754 4.2968 2.25467C5.55423 2.77212 6.60755 3.25584 7.66106 3.98062C8.13665 4.32585 8.64641 4.98179 9.25794 5.1544H9.97161C11.0591 5.39586 12.2822 5.22345 13.3017 5.53395C15.1029 6.12065 16.7337 6.98372 18.195 7.91584C22.6466 10.7808 26.3161 14.8542 28.797 19.7213C29.2048 20.5149 29.3745 21.2403 29.7484 22.0685C30.4622 23.7601 31.3456 25.486 32.0589 27.1429C32.7726 28.7651 33.4521 30.4222 34.4716 31.7686C34.9814 32.4932 37.02 32.8731 37.9376 33.2529C38.6173 33.5634 39.6708 33.8398 40.2823 34.2193C41.4376 34.9439 42.5929 35.7729 43.6804 36.5665C44.2241 36.9808 45.923 37.8438 46.0251 38.5341V38.5341Z" fill="#00546B"/>
<path d="M11.3646 8.53613C10.7871 8.53613 10.3795 8.60558 9.97168 8.70894V8.77799H10.0396C10.3117 9.33035 10.7871 9.7101 11.1268 10.1932C11.3988 10.7454 11.6365 11.2979 11.9086 11.8503C11.9424 11.8156 11.9764 11.7813 11.9764 11.7813C12.4523 11.4358 12.69 10.8837 12.69 10.0551C12.4861 9.81367 12.4521 9.57201 12.2822 9.33035C12.0785 8.98493 11.6365 8.81251 11.3646 8.53613V8.53613Z" fill="#00546B"/>
</svg>
