<svg width="50" height="50" viewBox="0 0 50 50" fill="none" xmlns="http://www.w3.org/2000/svg">
<path d="M44.0512 11.8488L26.8258 1.84687C25.7395 1.22812 24.325 1.22812 23.2301 1.84687L5.8207 11.8488C4.69961 12.4937 3.90625 13.7059 3.90625 15.0023V34.9797C3.90625 36.2762 4.72031 37.4887 5.84141 38.1371L10.441 40.7496C12.6395 41.8324 13.4164 41.8324 14.4168 41.8324C17.6719 41.8324 19.5312 39.8641 19.5312 36.4309V16.7082C19.5312 16.4297 19.3863 16.0152 19.1129 16.0152H16.9164C16.6383 16.0152 16.0156 16.4297 16.0156 16.7078V36.4305C16.0156 37.9523 14.6391 39.4668 12.0664 38.1805L7.31367 35.441C7.14805 35.3512 7.03125 35.1703 7.03125 34.9797V15.0023C7.03125 14.8141 7.24805 14.625 7.41484 14.5285L24.768 4.54375C24.9301 4.45195 25.1684 4.45195 25.3301 4.54375L42.4715 14.5262C42.6355 14.625 42.5777 14.8082 42.5777 15.0023V34.9797C42.5777 35.1703 42.6492 35.3559 42.4871 35.4477L25.266 45.4383C25.1184 45.527 24.9352 45.527 24.7734 45.4383L20.3566 42.802C20.2234 42.7246 20.0652 42.6969 19.9375 42.7684C18.7086 43.4648 18.482 43.5574 17.3293 43.957C17.0457 44.0559 16.6273 44.2273 17.4895 44.7105L23.2699 48.1301C23.8218 48.4488 24.4478 48.6167 25.0852 48.6168C25.7266 48.6168 26.3547 48.4504 26.9082 48.1301L44.0508 38.1371C45.1719 37.484 45.7031 36.2762 45.7031 34.9797V15.0023C45.7031 13.7059 45.1719 12.4969 44.0512 11.8488V11.8488ZM30.4336 31.8141C25.8531 31.8141 24.8441 30.5504 24.5078 28.2727C24.4688 28.0273 24.2605 27.734 24.0109 27.734H21.7723C21.4953 27.734 21.2727 28.0699 21.2727 28.3457C21.2727 31.2621 22.8582 34.7957 30.434 34.7957C35.918 34.7957 39.0621 32.6648 39.0621 28.8938C39.0621 25.1547 36.5359 24.1734 31.2176 23.4695C25.8418 22.759 25.2957 22.4 25.2957 21.1406C25.2957 20.1023 25.7582 18.7176 29.7387 18.7176C33.2953 18.7176 34.6062 19.4809 35.1457 21.8781C35.1918 22.1035 35.3977 22.2652 35.6301 22.2652H37.8777C38.016 22.2652 38.148 22.2094 38.2449 22.1105C38.3387 22.0043 38.3883 21.8711 38.3758 21.7281C38.0277 17.6 35.2852 15.6762 29.7383 15.6762C24.8043 15.6762 21.8609 17.7598 21.8609 21.2523C21.8609 25.0406 24.7895 26.0875 29.5258 26.5559C35.1918 27.1113 35.6324 27.9395 35.6324 29.0539C35.6324 30.9895 34.0785 31.8141 30.4336 31.8141Z" fill="#83CD29"/>
</svg>
