<svg width="50" height="50" viewBox="0 0 50 50" fill="none" xmlns="http://www.w3.org/2000/svg">
<path fill-rule="evenodd" clip-rule="evenodd" d="M42.8441 5.75664C38.0762 3.40391 33.1926 3.16445 28.1926 4.93203C23.5914 6.55859 19.9211 9.46914 17.1926 13.4332C12.5758 20.141 9.22227 27.4602 7.34297 35.4109C6.38047 39.4801 5.75703 43.7961 5.92461 47.9984C5.93828 48.3395 5.98906 48.4375 6.02266 49.2188H29.6031C29.5355 48.4375 29.491 48.6656 29.4324 48.5168C28.1864 45.3245 27.2157 42.0315 26.5309 38.6738C25.5551 33.8883 25.0441 29.0141 26.052 24.1844C27.4625 17.4215 31.3176 12.5418 37.8164 10.0113C41.4977 8.57891 44.9918 8.98633 48.0562 11.6762C48.0844 11.7008 48.1422 11.6859 48.2172 11.698L49.2191 10.1812C47.2895 8.34414 45.1691 6.9043 42.8441 5.75664V5.75664ZM1.30273 36.8727C1.12305 38.4051 0.955078 39.8398 0.779297 41.3457L5.12773 41.8676L5.92422 37.2219L1.30273 36.8727V36.8727ZM9.83789 23.5188L5.74766 21.9184L4.42578 25.6711L8.59414 27.007C9.01602 25.823 9.41289 24.7094 9.83789 23.5188ZM29.1422 44.4793C30.5387 44.5832 31.9379 44.6547 33.4793 44.7445C32.9195 43.5809 32.4223 42.5285 31.9016 41.4887C31.8445 41.3758 31.652 41.2668 31.5211 41.2648C30.3363 41.2477 29.1508 41.2551 27.8918 41.2551C28.1754 42.2816 28.4219 43.2289 28.7105 44.1625C28.7539 44.3035 28.9867 44.468 29.1422 44.4793V44.4793ZM16.7703 12.1496L13.6629 10.0918L11.1789 12.8672L14.3734 15.0141L16.7703 12.1496ZM26.6664 32.9969C26.6613 33.1223 26.7742 33.3219 26.8844 33.3715C28.0035 33.8746 29.1344 34.3539 30.3656 34.8844C30.3145 33.9109 30.2801 33.0973 30.2219 32.2852C30.2113 32.1391 30.1426 31.9289 30.0344 31.8688C29.0066 31.3 27.9645 30.7566 26.825 30.152C26.7629 31.193 26.6996 32.0941 26.6664 32.9969V32.9969ZM25.7457 4.80469L23.6184 2.39023L20.6891 3.91289L22.8199 6.5082L25.7457 4.80469ZM27.0797 24.0141C27.016 24.1602 27.1 24.4699 27.2254 24.5828C28.075 25.3492 28.9535 26.0828 29.9309 26.9191C30.1547 25.9816 30.3656 25.1461 30.5445 24.3047C30.5762 24.1551 30.532 23.9078 30.4281 23.8242C29.668 23.2113 28.8832 22.6277 28.0699 22.0074C27.7125 22.7164 27.366 23.3523 27.0797 24.0141ZM31.943 3.53594C33.0289 3.56523 34.116 3.55234 35.2629 3.55234C35.1484 2.75391 35.0937 2.14883 34.9574 1.56328C34.9168 1.38906 34.6547 1.15703 34.4777 1.14219C33.3891 1.05391 32.2961 1.01992 31.0984 0.962891C31.2582 1.76875 31.3801 2.47891 31.5523 3.17695C31.5887 3.325 31.8051 3.53203 31.943 3.53594V3.53594ZM33.2652 17.4715C33.3207 17.3676 33.3348 17.1789 33.2766 17.0883C32.743 16.2535 32.1887 15.4316 31.6148 14.5668L29.7555 16.2746L32.3266 19.1238C32.6719 18.5227 32.9809 18.0035 33.2652 17.4715V17.4715ZM35.2711 11.7969L36.3816 13.8598C38.1195 12.9074 38.2859 12.5629 37.6707 11.1902L35.2711 11.7969ZM43.5863 5.44023C44.3094 5.88633 45.073 6.26641 45.8488 6.68437L46.3684 5.87578C45.4223 5.18398 44.509 4.51484 43.4727 3.75625C43.432 4.1875 43.3715 4.48867 43.3871 4.78633C43.3996 5.01328 43.4375 5.34883 43.5863 5.44023V5.44023ZM42.5777 11.9711C43.359 12.0559 44.5309 12.1367 45.3121 12.2223V11.1605C44.5309 10.9895 43.359 10.8199 42.5777 10.6437V11.9711Z" fill="#CC0000"/>
</svg>
