<svg width="50" height="50" viewBox="0 0 50 50" fill="none" xmlns="http://www.w3.org/2000/svg">
<path d="M50 25.0049C50 22.098 45.852 19.3432 39.4925 17.6349C40.96 11.9464 40.3078 7.42068 37.4338 5.97173C36.7713 5.63185 35.9967 5.47086 35.1508 5.47086V7.4654C35.6196 7.4654 35.9967 7.5459 36.3127 7.69795C37.6987 8.39559 38.3 11.052 37.8312 14.4687C37.7191 15.3094 37.5357 16.1949 37.3115 17.0983C35.3139 16.6689 33.1329 16.338 30.8398 16.1233C29.4639 14.4687 28.0371 12.9661 26.6001 11.6513C29.9225 8.94119 33.0412 7.45646 35.161 7.45646V5.46191C32.3583 5.46191 28.6894 7.21497 24.9796 10.256C21.2699 7.23286 17.6009 5.49769 14.7982 5.49769V7.49224C16.9079 7.49224 20.0367 8.96802 23.3592 11.6602C21.9323 12.975 20.5055 14.4687 19.15 16.1233C16.8467 16.338 14.6657 16.6689 12.6682 17.1072C12.4338 16.2128 12.2605 15.3452 12.1382 14.5134C11.6592 11.0967 12.2503 8.44032 13.6262 7.73373C13.9319 7.57273 14.3294 7.50118 14.7982 7.50118V5.50663C13.9421 5.50663 13.1675 5.66763 12.4949 6.00751C9.63106 7.45646 8.98899 11.9733 10.4668 17.6438C4.1276 19.3611 0 22.107 0 25.0049C0 27.9117 4.14798 30.6665 10.5075 32.3749C9.03995 38.0633 9.69221 42.5891 12.5662 44.038C13.2287 44.3779 14.0033 44.5389 14.8594 44.5389C17.662 44.5389 21.331 42.7858 25.0408 39.7448C28.7505 42.768 32.4195 44.5031 35.2222 44.5031C36.0783 44.5031 36.8528 44.3421 37.5255 44.0022C40.3893 42.5533 41.0314 38.0365 39.5536 32.3659C45.8724 30.6576 50 27.9028 50 25.0049V25.0049ZM36.7305 19.0391C36.3534 20.1929 35.8846 21.3825 35.3547 22.5721C34.9368 21.8565 34.4986 21.141 34.0196 20.4255C33.5508 19.7099 33.0514 19.0123 32.552 18.3325C33.9992 18.5204 35.3954 18.7529 36.7305 19.0391ZM32.0628 28.5646C31.2678 29.7721 30.4525 30.917 29.6066 31.9813C28.0881 32.0976 26.5491 32.1602 25 32.1602C23.4611 32.1602 21.9221 32.0976 20.4138 31.9903C19.5679 30.9259 18.7424 29.79 17.9474 28.5915C17.1728 27.4198 16.4696 26.2302 15.8276 25.0317C16.4594 23.8332 17.1729 22.6347 17.9372 21.463C18.7322 20.2555 19.5475 19.1107 20.3934 18.0463C21.9119 17.9301 23.4509 17.8674 25 17.8674C26.5389 17.8674 28.0779 17.9301 29.5862 18.0374C30.4321 19.1017 31.2576 20.2376 32.0526 21.4362C32.8272 22.6078 33.5304 23.7974 34.1724 24.9959C33.5304 26.1944 32.8271 27.393 32.0628 28.5646ZM35.3547 27.4019C35.905 28.6004 36.3738 29.7989 36.7611 30.9617C35.426 31.2479 34.0196 31.4894 32.5622 31.6772C33.0616 30.9885 33.5609 30.2819 34.0298 29.5574C34.4986 28.8419 34.9368 28.1174 35.3547 27.4019ZM25.0204 36.9453C24.0726 36.0867 23.1247 35.1297 22.1871 34.0832C23.1044 34.119 24.042 34.1458 24.9898 34.1458C25.9478 34.1458 26.8956 34.1279 27.8231 34.0832C26.9058 35.1297 25.958 36.0867 25.0204 36.9453ZM17.4378 31.6772C15.9906 31.4894 14.5944 31.2568 13.2593 30.9706C13.6364 29.8168 14.1052 28.6273 14.6351 27.4377C15.053 28.1532 15.4912 28.8688 15.9702 29.5843C16.4492 30.2998 16.9384 30.9975 17.4378 31.6772ZM24.9694 13.0644C25.9172 13.9231 26.8651 14.8801 27.8027 15.9266C26.8854 15.8908 25.9478 15.864 25 15.864C24.042 15.864 23.0942 15.8818 22.1667 15.9266C23.084 14.8801 24.0318 13.9231 24.9694 13.0644ZM17.4276 18.3325C16.9283 19.0212 16.4289 19.7278 15.96 20.4523C15.4912 21.1678 15.053 21.8834 14.6351 22.5989C14.0848 21.4004 13.616 20.2019 13.2287 19.0391C14.5638 18.7619 15.9702 18.5204 17.4276 18.3325V18.3325ZM8.20424 29.5306C4.59641 28.1801 2.26254 26.4091 2.26254 25.0049C2.26254 23.6006 4.59641 21.8208 8.20424 20.4791C9.08072 20.1482 10.0387 19.853 11.0273 19.5758C11.6082 21.3288 12.3726 23.1534 13.3204 25.0228C12.3828 26.8832 11.6286 28.6988 11.0579 30.4429C10.0489 30.1657 9.09091 29.8616 8.20424 29.5306ZM13.6873 42.3118C12.3013 41.6142 11.7 38.9577 12.1688 35.5411C12.2809 34.7003 12.4643 33.8149 12.6885 32.9115C14.6861 33.3408 16.8671 33.6718 19.1602 33.8864C20.5361 35.5411 21.9629 37.0437 23.3999 38.3585C20.0775 41.0686 16.9588 42.5533 14.839 42.5533C14.3803 42.5444 13.9931 42.4639 13.6873 42.3118V42.3118ZM37.8618 35.4964C38.3408 38.913 37.7497 41.5694 36.3738 42.276C36.0681 42.437 35.6706 42.5086 35.2018 42.5086C33.0921 42.5086 29.9633 41.0328 26.6409 38.3406C28.0677 37.0258 29.4945 35.5321 30.85 33.8775C33.1533 33.6628 35.3343 33.3319 37.3318 32.8936C37.5662 33.797 37.7497 34.6646 37.8618 35.4964V35.4964ZM41.7856 29.5306C40.9091 29.8616 39.9511 30.1567 38.9625 30.434C38.3816 28.6809 37.6172 26.8563 36.6694 24.987C37.607 23.1266 38.3612 21.3109 38.9319 19.5668C39.9409 19.8441 40.8989 20.1482 41.7958 20.4791C45.4036 21.8297 47.7375 23.6006 47.7375 25.0049C47.7273 26.4091 45.3934 28.189 41.7856 29.5306V29.5306Z" fill="#61DAFB"/>
<path d="M24.9905 29.0929C27.5628 29.0929 29.6481 27.2629 29.6481 25.0054C29.6481 22.748 27.5628 20.918 24.9905 20.918C22.4183 20.918 20.333 22.748 20.333 25.0054C20.333 27.2629 22.4183 29.0929 24.9905 29.0929Z" fill="#61DAFB"/>
</svg>
