<svg width="50" height="50" viewBox="0 0 50 50" fill="none" xmlns="http://www.w3.org/2000/svg">
<g clip-path="url(#clip0)">
<path d="M45.4741 2.60673C44.7708 4.28619 43.8786 5.88102 42.8041 7.34565C38.1024 2.64579 31.7205 0.00292969 25.0716 0.00292969C11.3181 0.00292969 0 11.3295 0 25.0971C0 31.9646 2.81323 38.5392 7.78849 43.2781L8.71321 44.0983C13.2326 47.9064 18.9568 50.0025 24.8632 50.0025C37.9396 50.0025 48.932 39.7565 49.8632 26.6984C50.547 20.3061 48.6715 12.2213 45.4741 2.60673ZM11.3506 43.4213C10.9469 43.9226 10.3282 44.2155 9.68351 44.2155C8.50482 44.2155 7.54103 43.2456 7.54103 42.0674C7.54103 40.8891 8.51133 39.9192 9.68351 39.9192C10.1719 39.9192 10.6538 40.0885 11.0315 40.4009C11.9497 41.143 12.093 42.5035 11.3506 43.4213ZM45.3699 35.9094C39.1834 44.1569 25.9703 41.3774 17.498 41.7744C17.498 41.7744 15.9937 41.8656 14.4829 42.1129C14.4829 42.1129 15.0495 41.8721 15.7854 41.5922C21.7309 39.5222 24.5442 39.1186 28.1584 37.2634C34.9635 33.8003 41.6905 26.2232 43.0907 18.3402C40.4988 25.9238 32.6452 32.4398 25.4884 35.0892C20.5848 36.8988 11.7283 38.6564 11.7283 38.6564L11.3701 38.4676C5.33993 35.5318 5.15759 22.4672 16.1175 18.2491C20.9169 16.4004 25.5079 17.4159 30.6916 16.1791C36.2269 14.8641 42.6283 10.7111 45.2331 5.29516C48.1506 13.9593 51.6606 27.5251 45.3699 35.9094V35.9094Z" fill="#77BC1F"/>
</g>
<defs>
<clipPath id="clip0">
<rect width="50" height="50" fill="white"/>
</clipPath>
</defs>
</svg>
