<svg width="50" height="50" viewBox="0 0 50 50" fill="none" xmlns="http://www.w3.org/2000/svg">
<path d="M0 25V0H50V50H0" fill="#007ACC"/>
<path d="M10.9629 25.0871V27.1246H17.4629V45.6246H22.0754V27.1246H28.5755V25.1246C28.5755 23.9996 28.5755 23.0871 28.5255 23.0621C28.5255 23.0246 24.5629 23.0121 19.7504 23.0121L11.0004 23.0496V25.0996L10.9629 25.0871V25.0871ZM40.1755 22.9996C41.4505 23.2996 42.4255 23.8746 43.3005 24.7871C43.763 25.2871 44.4505 26.1621 44.5005 26.3871C44.5005 26.4621 42.338 27.9246 41.0255 28.7371C40.9755 28.7746 40.7755 28.5621 40.5755 28.2371C39.9255 27.3121 39.263 26.9121 38.2255 26.8371C36.7255 26.7371 35.7255 27.5246 35.7255 28.8371C35.7255 29.2371 35.8005 29.4621 35.9505 29.7871C36.288 30.4746 36.913 30.8871 38.8505 31.7371C42.4255 33.2746 43.9755 34.2871 44.913 35.7371C45.9755 37.3621 46.213 39.9121 45.5005 41.8246C44.7005 43.9121 42.7505 45.3246 39.963 45.7871C39.088 45.9371 37.088 45.9121 36.1505 45.7496C34.1505 45.3746 32.238 44.3746 31.063 43.0871C30.6005 42.5871 29.713 41.2496 29.763 41.1621L30.238 40.8621L32.113 39.7746L33.5255 38.9496L33.8505 39.3871C34.263 40.0371 35.188 40.9121 35.7255 41.2121C37.3505 42.0496 39.5255 41.9371 40.6005 40.9621C41.063 40.5371 41.263 40.0871 41.263 39.4621C41.263 38.8871 41.1755 38.6246 40.888 38.1871C40.488 37.6371 39.688 37.1871 37.438 36.1871C34.8505 35.0871 33.7505 34.3871 32.7255 33.3121C32.138 32.6621 31.6005 31.6496 31.3505 30.8121C31.163 30.0871 31.1005 28.3121 31.2755 27.5996C31.813 25.0996 33.7005 23.3496 36.4005 22.8496C37.2755 22.6746 39.338 22.7496 40.2005 22.9746L40.1755 22.9996V22.9996Z" fill="white"/>
</svg>
